<?xml version="1.0"?>
<!-- Generated by SVGo -->
<svg width="300" height="300"
     xmlns="http://www.w3.org/2000/svg"
     xmlns:xlink="http://www.w3.org/1999/xlink">
<polyline points="50,50 100,100" style="stroke: #ff0000; stroke-width: 4px" />
<circle cx="100" cy="100" r="2" style="fill: #ff0000" />
<polyline points="100,100 100,200" style="stroke: #ff0000; stroke-width: 4px" />
<circle cx="100" cy="200" r="2" style="fill: #ff0000" />
<polyline points="100,200 200,200" style="stroke: #ff0000; stroke-width: 4px" />
<circle cx="200" cy="200" r="2" style="fill: #ff0000" />
<polyline points="200,200 250,250" style="stroke: #ff0000; stroke-width: 4px" />
<circle cx="250" cy="250" r="2" style="fill: #ff0000" />
<polyline points="250,250 250,50" style="stroke: #ff0000; stroke-width: 4px" />
<circle cx="250" cy="50" r="2" style="fill: #ff0000" />
<polyline points="250,250 250,50" style="stroke: #0000ff; stroke-width: 4px" />
<circle cx="250" cy="50" r="2" style="fill: #0000ff" />
<polyline points="250,50 50,50" style="stroke: #0000ff; stroke-width: 4px" />
<circle cx="50" cy="50" r="2" style="fill: #0000ff" />
<circle cx="50" cy="50" r="4" style="fill: #ffffff; stroke: #000000; stroke-width: 2px" />
<circle cx="100" cy="100" r="1" style="fill: #ffffff; stroke-width: 4px; stroke: #ff0000;" />
<circle cx="100" cy="200" r="1" style="fill: #ffffff; stroke-width: 4px; stroke: #ff0000;" />
<circle cx="250" cy="250" r="4" style="fill: #ffffff; stroke: #000000; stroke-width: 2px" />
<circle cx="250" cy="50" r="4" style="fill: #ffffff; stroke: #000000; stroke-width: 2px" />
</svg>
