<?xml version="1.0"?>
<!-- Generated by SVGo -->
<svg width="600" height="600"
     xmlns="http://www.w3.org/2000/svg"
     xmlns:xlink="http://www.w3.org/1999/xlink">
<polyline points="140,140 230,230" style="stroke: #ff0000; stroke-width: 4px" />
<circle cx="230" cy="230" r="2" style="fill: #ff0000" />
<polyline points="230,230 230,410" style="stroke: #ff0000; stroke-width: 4px" />
<circle cx="230" cy="410" r="2" style="fill: #ff0000" />
<polyline points="230,410 410,410" style="stroke: #ff0000; stroke-width: 4px" />
<circle cx="410" cy="410" r="2" style="fill: #ff0000" />
<polyline points="410,410 500,500" style="stroke: #ff0000; stroke-width: 4px" />
<circle cx="500" cy="500" r="2" style="fill: #ff0000" />
<polyline points="500,500 500,140" style="stroke: #ff0000; stroke-width: 4px" />
<circle cx="500" cy="140" r="2" style="fill: #ff0000" />
<polyline points="498,498 498,138" style="stroke: #ff0000; stroke-width: 4px" />
<circle cx="498" cy="138" r="2" style="fill: #ff0000" />
<polyline points="502,502 502,142" style="stroke: #0000ff; stroke-width: 4px" />
<circle cx="502" cy="142" r="2" style="fill: #0000ff" />
<polyline points="500,140 140,140" style="stroke: #0000ff; stroke-width: 4px" />
<circle cx="140" cy="140" r="2" style="fill: #0000ff" />
<circle cx="140" cy="140" r="4" style="fill: #ffffff; stroke: #000000; stroke-width: 2px" />
<text x="185" y="185" style="font-size: 8px" >Kensal Rise</text>
<circle cx="230" cy="230" r="1" style="fill: #ffffff; stroke-width: 4px; stroke: #ff0000;" />
<text x="275" y="275" style="font-size: 8px" >Gospel Oak</text>
<circle cx="230" cy="410" r="1" style="fill: #ffffff; stroke-width: 4px; stroke: #ff0000;" />
<text x="275" y="275" style="font-size: 8px" >Hampstead Heath</text>
<circle cx="500" cy="500" r="4" style="fill: #ffffff; stroke: #000000; stroke-width: 2px" />
<text x="545" y="545" style="font-size: 8px" >Richmond</text>
<circle cx="500" cy="140" r="4" style="fill: #ffffff; stroke: #000000; stroke-width: 2px" />
<text x="545" y="545" style="font-size: 8px" >Stratford</text>
</svg>
